{
	"asset":{
		"generator":"Khronos glTF Blender I/O v4.2.70",
		"version":"2.0"
	},
	"extensionsUsed":[
		"KHR_materials_clearcoat",
		"KHR_materials_transmission",
		"KHR_materials_specular",
		"KHR_materials_ior",
		"KHR_texture_transform"
	],
	"extensionsRequired":[
		"KHR_texture_transform"
	],
	"scene":0,
	"scenes":[
		{
			"name":"Scene",
			"nodes":[
				0,
				1,
				2,
				3,
				4,
				5,
				6,
				7,
				8,
				9,
				10,
				11,
				12,
				13,
				14,
				15,
				16,
				17,
				18,
				19,
				20,
				21,
				22,
				23,
				24,
				25,
				26,
				27,
				28,
				29,
				30,
				31,
				32,
				33,
				34,
				35,
				36,
				37,
				38,
				39,
				40,
				41,
				42,
				43
			]
		}
	],
	"nodes":[
		{
			"mesh":0,
			"name":"Farsunka",
			"rotation":[
				0,
				-0.2965414524078369,
				0,
				0.955020010471344
			],
			"translation":[
				-2.548948049545288,
				2.5481035709381104,
				0.11463872343301773
			]
		},
		{
			"mesh":1,
			"name":"Farsunka.002",
			"rotation":[
				0,
				-0.2965414524078369,
				0,
				0.955020010471344
			],
			"translation":[
				-8.962779998779297,
				2.561285972595215,
				-1.324895977973938
			]
		},
		{
			"mesh":2,
			"name":"Farsunka.003",
			"rotation":[
				0,
				-0.2965414524078369,
				0,
				0.955020010471344
			],
			"translation":[
				-8.764010429382324,
				2.5612854957580566,
				-2.258814811706543
			]
		},
		{
			"mesh":3,
			"name":"Farsunka.004",
			"rotation":[
				0,
				-0.2965414524078369,
				0,
				0.955020010471344
			],
			"translation":[
				-8.473245620727539,
				2.561285972595215,
				-3.16855525970459
			]
		},
		{
			"mesh":4,
			"name":"Farsunka.005",
			"rotation":[
				0,
				-0.2965414524078369,
				0,
				0.955020010471344
			],
			"translation":[
				-8.093722343444824,
				2.5612857341766357,
				-4.046238899230957
			]
		},
		{
			"mesh":5,
			"name":"Farsunka.006",
			"rotation":[
				0,
				-0.2965414524078369,
				0,
				0.955020010471344
			],
			"translation":[
				-7.607668399810791,
				2.561285972595215,
				-4.869106292724609
			]
		},
		{
			"mesh":6,
			"name":"Farsunka.007",
			"rotation":[
				0,
				-0.2965414524078369,
				0,
				0.955020010471344
			],
			"translation":[
				-7.041441440582275,
				2.561285972595215,
				-5.637164115905762
			]
		},
		{
			"mesh":7,
			"name":"Farsunka.008",
			"rotation":[
				0,
				-0.2965414524078369,
				0,
				0.955020010471344
			],
			"translation":[
				-6.404876708984375,
				2.561285972595215,
				-6.347927570343018
			]
		},
		{
			"mesh":8,
			"name":"Farsunka.009",
			"rotation":[
				0,
				-0.2965414524078369,
				0,
				0.955020010471344
			],
			"translation":[
				-5.700374126434326,
				2.561285972595215,
				-6.993408203125
			]
		},
		{
			"mesh":9,
			"name":"Farsunka.010",
			"rotation":[
				0,
				-0.2965414524078369,
				0,
				0.955020010471344
			],
			"translation":[
				-4.929109573364258,
				2.561285972595215,
				-7.5596208572387695
			]
		},
		{
			"mesh":10,
			"name":"Farsunka.011",
			"rotation":[
				0,
				-0.2965414524078369,
				0,
				0.955020010471344
			],
			"translation":[
				-4.095677852630615,
				2.561285972595215,
				-8.0283203125
			]
		},
		{
			"mesh":11,
			"name":"Farsunka.012",
			"rotation":[
				0,
				-0.2965414524078369,
				0,
				0.955020010471344
			],
			"translation":[
				-3.2207558155059814,
				2.561285972595215,
				-8.410823822021484
			]
		},
		{
			"mesh":12,
			"name":"Farsunka.013",
			"rotation":[
				0,
				-0.2965414524078369,
				0,
				0.955020010471344
			],
			"translation":[
				-2.312533378601074,
				2.561285972595215,
				-8.704129219055176
			]
		},
		{
			"mesh":13,
			"name":"Farsunka.014",
			"rotation":[
				0,
				-0.2965414524078369,
				0,
				0.955020010471344
			],
			"translation":[
				-1.3793139457702637,
				2.5612857341766357,
				-8.905590057373047
			]
		},
		{
			"mesh":14,
			"name":"Farsunka.015",
			"rotation":[
				0,
				-0.2965414524078369,
				0,
				0.955020010471344
			],
			"translation":[
				-0.42955055832862854,
				2.561285972595215,
				-9.0126953125
			]
		},
		{
			"mesh":15,
			"name":"Farsunka.016",
			"rotation":[
				0,
				-0.2965414524078369,
				0,
				0.955020010471344
			],
			"translation":[
				0.5267214775085449,
				2.5612857341766357,
				-9.006064414978027
			]
		},
		{
			"mesh":16,
			"name":"Farsunka.017",
			"rotation":[
				0,
				-0.2965414524078369,
				0,
				0.955020010471344
			],
			"translation":[
				1.4760265350341797,
				2.561285972595215,
				-8.897512435913086
			]
		},
		{
			"mesh":17,
			"name":"Farsunka.018",
			"rotation":[
				0,
				-0.2965414524078369,
				0,
				0.955020010471344
			],
			"translation":[
				2.409071445465088,
				2.561285972595215,
				-8.69444465637207
			]
		},
		{
			"mesh":18,
			"name":"Farsunka.019",
			"rotation":[
				0,
				-0.2965414524078369,
				0,
				0.955020010471344
			],
			"translation":[
				3.3173513412475586,
				2.5612857341766357,
				-8.399476051330566
			]
		},
		{
			"mesh":19,
			"name":"Farsunka.020",
			"rotation":[
				0,
				-0.2965414524078369,
				0,
				0.955020010471344
			],
			"translation":[
				4.193139553070068,
				2.561285972595215,
				-8.016243934631348
			]
		},
		{
			"mesh":20,
			"name":"Farsunka.021",
			"rotation":[
				0,
				-0.2965414524078369,
				0,
				0.955020010471344
			],
			"translation":[
				5.015756607055664,
				2.561285972595215,
				-7.529719829559326
			]
		},
		{
			"mesh":21,
			"name":"Farsunka.022",
			"rotation":[
				0,
				-0.2965414524078369,
				0,
				0.955020010471344
			],
			"translation":[
				5.7812652587890625,
				2.561285972595215,
				-6.959789752960205
			]
		},
		{
			"mesh":22,
			"name":"Farsunka.023",
			"rotation":[
				0,
				-0.2965414524078369,
				0,
				0.955020010471344
			],
			"translation":[
				6.489032745361328,
				2.561285972595215,
				-6.319868087768555
			]
		},
		{
			"mesh":23,
			"name":"Farsunka.024",
			"rotation":[
				0,
				-0.2965414524078369,
				0,
				0.955020010471344
			],
			"translation":[
				7.131121635437012,
				2.5612857341766357,
				-5.612484455108643
			]
		},
		{
			"mesh":24,
			"name":"Farsunka.025",
			"rotation":[
				0,
				-0.2965414524078369,
				0,
				0.955020010471344
			],
			"translation":[
				7.696613311767578,
				2.561285972595215,
				-4.840743541717529
			]
		},
		{
			"mesh":25,
			"name":"Farsunka.026",
			"rotation":[
				0,
				-0.2965414524078369,
				0,
				0.955020010471344
			],
			"translation":[
				8.162166595458984,
				2.5612857341766357,
				-4.005314826965332
			]
		},
		{
			"mesh":26,
			"name":"Farsunka.027",
			"rotation":[
				0,
				-0.2965414524078369,
				0,
				0.955020010471344
			],
			"translation":[
				8.54074764251709,
				2.5612857341766357,
				-3.1285667419433594
			]
		},
		{
			"mesh":27,
			"name":"Farsunka.028",
			"rotation":[
				0,
				-0.2965414524078369,
				0,
				0.955020010471344
			],
			"translation":[
				8.829971313476562,
				2.561285972595215,
				-2.219040632247925
			]
		},
		{
			"mesh":28,
			"name":"Farsunka.029",
			"rotation":[
				0,
				-0.2965414524078369,
				0,
				0.955020010471344
			],
			"translation":[
				9.02723503112793,
				2.561285972595215,
				-1.2850401401519775
			]
		},
		{
			"mesh":29,
			"name":"Farsunka.031",
			"rotation":[
				0,
				-0.2965414524078369,
				0,
				0.955020010471344
			],
			"translation":[
				0.015927765518426895,
				2.5609800815582275,
				0.10000041127204895
			]
		},
		{
			"mesh":30,
			"name":"Farsunka.032",
			"rotation":[
				0,
				-0.2965414524078369,
				0,
				0.955020010471344
			],
			"translation":[
				-2.216247081756592,
				2.5481038093566895,
				-1.164772391319275
			]
		},
		{
			"mesh":31,
			"name":"Farsunka.033",
			"rotation":[
				0,
				-0.2965414524078369,
				0,
				0.955020010471344
			],
			"translation":[
				-1.2908779382705688,
				2.5481035709381104,
				-2.1091203689575195
			]
		},
		{
			"mesh":32,
			"name":"Farsunka.034",
			"rotation":[
				0,
				-0.2965414524078369,
				0,
				0.955020010471344
			],
			"translation":[
				-0.017841637134552002,
				2.5481035709381104,
				-2.4655418395996094
			]
		},
		{
			"mesh":33,
			"name":"Farsunka.035",
			"rotation":[
				0,
				-0.2965414524078369,
				0,
				0.955020010471344
			],
			"translation":[
				1.2633860111236572,
				2.5481035709381104,
				-2.141124963760376
			]
		},
		{
			"mesh":34,
			"name":"Farsunka.036",
			"rotation":[
				0,
				-0.2965414524078369,
				0,
				0.955020010471344
			],
			"translation":[
				2.2135872840881348,
				2.5481035709381104,
				-1.2221463918685913
			]
		},
		{
			"mesh":35,
			"name":"Farsunka.037",
			"rotation":[
				0,
				-0.2965414524078369,
				0,
				0.955020010471344
			],
			"translation":[
				2.5779995918273926,
				2.5481035709381104,
				0.048311784863471985
			]
		},
		{
			"mesh":36,
			"name":"Farsunka.038",
			"rotation":[
				0,
				-0.2965414524078369,
				0,
				0.955020010471344
			],
			"translation":[
				2.262056350708008,
				2.5481035709381104,
				1.3313324451446533
			]
		},
		{
			"mesh":37,
			"name":"Farsunka.039",
			"rotation":[
				0,
				-0.2965414524078369,
				0,
				0.955020010471344
			],
			"translation":[
				1.34938645362854,
				2.5481035709381104,
				2.287205934524536
			]
		},
		{
			"mesh":38,
			"name":"Farsunka.040",
			"rotation":[
				0,
				-0.2965414524078369,
				0,
				0.955020010471344
			],
			"translation":[
				0.015346091240644455,
				2.5481035709381104,
				2.662580966949463
			]
		},
		{
			"mesh":39,
			"name":"Farsunka.041",
			"rotation":[
				0,
				-0.2965414524078369,
				0,
				0.955020010471344
			],
			"translation":[
				-1.2621461153030396,
				2.5481035709381104,
				2.3218350410461426
			]
		},
		{
			"mesh":40,
			"name":"Farsunka.042",
			"rotation":[
				0,
				-0.2965414524078369,
				0,
				0.955020010471344
			],
			"translation":[
				-2.200363874435425,
				2.5481035709381104,
				1.3900277614593506
			]
		},
		{
			"mesh":41,
			"name":"Cylinder",
			"translation":[
				0,
				2.201805353164673,
				-3.0822811126708984
			]
		},
		{
			"mesh":42,
			"name":"Cylinder.001",
			"translation":[
				0,
				1.1500000953674316,
				-2.759885787963867
			]
		},
		{
			"mesh":43,
			"name":"Cylinder.002",
			"translation":[
				-0.00255890772677958,
				3.811427116394043,
				-4.240131855010986
			]
		}
	],
	"materials":[
		{
			"doubleSided":true,
			"extensions":{
				"KHR_materials_clearcoat":{
					"clearcoatFactor":1
				}
			},
			"name":"Aluminum",
			"pbrMetallicRoughness":{
				"baseColorFactor":[
					0.913092851638794,
					0.9215825796127319,
					0.9215822219848633,
					1
				],
				"roughnessFactor":0.10000000149011612
			}
		},
		{
			"doubleSided":true,
			"extensions":{
				"KHR_materials_specular":{
					"specularTexture":{
						"extensions":{
							"KHR_texture_transform":{
								"offset":[
									0,
									-19
								],
								"scale":[
									20,
									20
								]
							}
						},
						"index":0
					}
				}
			},
			"name":"Grey granite",
			"normalTexture":{
				"extensions":{
					"KHR_texture_transform":{
						"offset":[
							0,
							-19
						],
						"scale":[
							20,
							20
						]
					}
				},
				"index":1
			},
			"pbrMetallicRoughness":{
				"baseColorTexture":{
					"extensions":{
						"KHR_texture_transform":{
							"offset":[
								0,
								-19
							],
							"scale":[
								20,
								20
							]
						}
					},
					"index":2
				},
				"metallicFactor":0,
				"metallicRoughnessTexture":{
					"extensions":{
						"KHR_texture_transform":{
							"offset":[
								0,
								-19
							],
							"scale":[
								20,
								20
							]
						}
					},
					"index":3
				}
			}
		},
		{
			"doubleSided":true,
			"extensions":{
				"KHR_materials_transmission":{
					"transmissionFactor":1
				},
				"KHR_materials_ior":{
					"ior":1.3329999446868896
				}
			},
			"name":"Water",
			"pbrMetallicRoughness":{
				"baseColorFactor":[
					0.4000000059604645,
					0.559999942779541,
					0.800000011920929,
					1
				],
				"metallicFactor":0,
				"roughnessFactor":0
			}
		},
		{
			"doubleSided":true,
			"name":"Tile",
			"normalTexture":{
				"extensions":{
					"KHR_texture_transform":{
						"offset":[
							0,
							-4
						],
						"scale":[
							5,
							5
						]
					}
				},
				"index":4
			},
			"pbrMetallicRoughness":{
				"baseColorTexture":{
					"extensions":{
						"KHR_texture_transform":{
							"offset":[
								0,
								-4
							],
							"scale":[
								5,
								5
							]
						}
					},
					"index":5
				},
				"metallicFactor":0,
				"metallicRoughnessTexture":{
					"extensions":{
						"KHR_texture_transform":{
							"offset":[
								0,
								-4
							],
							"scale":[
								5,
								5
							]
						}
					},
					"index":6
				}
			}
		}
	],
	"meshes":[
		{
			"name":"Cylinder.020",
			"primitives":[
				{
					"attributes":{
						"POSITION":0,
						"NORMAL":1,
						"TEXCOORD_0":2
					},
					"indices":3,
					"material":0
				}
			]
		},
		{
			"name":"Cylinder.002",
			"primitives":[
				{
					"attributes":{
						"POSITION":4,
						"NORMAL":5,
						"TEXCOORD_0":6
					},
					"indices":7,
					"material":0
				}
			]
		},
		{
			"name":"Cylinder.003",
			"primitives":[
				{
					"attributes":{
						"POSITION":8,
						"NORMAL":9,
						"TEXCOORD_0":10
					},
					"indices":11,
					"material":0
				}
			]
		},
		{
			"name":"Cylinder.004",
			"primitives":[
				{
					"attributes":{
						"POSITION":12,
						"NORMAL":13,
						"TEXCOORD_0":14
					},
					"indices":15,
					"material":0
				}
			]
		},
		{
			"name":"Cylinder.005",
			"primitives":[
				{
					"attributes":{
						"POSITION":16,
						"NORMAL":17,
						"TEXCOORD_0":18
					},
					"indices":19,
					"material":0
				}
			]
		},
		{
			"name":"Cylinder.006",
			"primitives":[
				{
					"attributes":{
						"POSITION":20,
						"NORMAL":21,
						"TEXCOORD_0":22
					},
					"indices":23,
					"material":0
				}
			]
		},
		{
			"name":"Cylinder.007",
			"primitives":[
				{
					"attributes":{
						"POSITION":24,
						"NORMAL":25,
						"TEXCOORD_0":26
					},
					"indices":27,
					"material":0
				}
			]
		},
		{
			"name":"Cylinder.008",
			"primitives":[
				{
					"attributes":{
						"POSITION":28,
						"NORMAL":29,
						"TEXCOORD_0":30
					},
					"indices":31,
					"material":0
				}
			]
		},
		{
			"name":"Cylinder.009",
			"primitives":[
				{
					"attributes":{
						"POSITION":32,
						"NORMAL":33,
						"TEXCOORD_0":34
					},
					"indices":35,
					"material":0
				}
			]
		},
		{
			"name":"Cylinder.010",
			"primitives":[
				{
					"attributes":{
						"POSITION":36,
						"NORMAL":37,
						"TEXCOORD_0":38
					},
					"indices":39,
					"material":0
				}
			]
		},
		{
			"name":"Cylinder.011",
			"primitives":[
				{
					"attributes":{
						"POSITION":40,
						"NORMAL":41,
						"TEXCOORD_0":42
					},
					"indices":43,
					"material":0
				}
			]
		},
		{
			"name":"Cylinder.012",
			"primitives":[
				{
					"attributes":{
						"POSITION":44,
						"NORMAL":45,
						"TEXCOORD_0":46
					},
					"indices":47,
					"material":0
				}
			]
		},
		{
			"name":"Cylinder.013",
			"primitives":[
				{
					"attributes":{
						"POSITION":48,
						"NORMAL":49,
						"TEXCOORD_0":50
					},
					"indices":51,
					"material":0
				}
			]
		},
		{
			"name":"Cylinder.014",
			"primitives":[
				{
					"attributes":{
						"POSITION":52,
						"NORMAL":53,
						"TEXCOORD_0":54
					},
					"indices":55,
					"material":0
				}
			]
		},
		{
			"name":"Cylinder.015",
			"primitives":[
				{
					"attributes":{
						"POSITION":56,
						"NORMAL":57,
						"TEXCOORD_0":58
					},
					"indices":59,
					"material":0
				}
			]
		},
		{
			"name":"Cylinder.016",
			"primitives":[
				{
					"attributes":{
						"POSITION":60,
						"NORMAL":61,
						"TEXCOORD_0":62
					},
					"indices":63,
					"material":0
				}
			]
		},
		{
			"name":"Cylinder.017",
			"primitives":[
				{
					"attributes":{
						"POSITION":64,
						"NORMAL":65,
						"TEXCOORD_0":66
					},
					"indices":67,
					"material":0
				}
			]
		},
		{
			"name":"Cylinder.018",
			"primitives":[
				{
					"attributes":{
						"POSITION":68,
						"NORMAL":69,
						"TEXCOORD_0":70
					},
					"indices":71,
					"material":0
				}
			]
		},
		{
			"name":"Cylinder.019",
			"primitives":[
				{
					"attributes":{
						"POSITION":72,
						"NORMAL":73,
						"TEXCOORD_0":74
					},
					"indices":75,
					"material":0
				}
			]
		},
		{
			"name":"Cylinder.021",
			"primitives":[
				{
					"attributes":{
						"POSITION":76,
						"NORMAL":77,
						"TEXCOORD_0":78
					},
					"indices":79,
					"material":0
				}
			]
		},
		{
			"name":"Cylinder.022",
			"primitives":[
				{
					"attributes":{
						"POSITION":80,
						"NORMAL":81,
						"TEXCOORD_0":82
					},
					"indices":83,
					"material":0
				}
			]
		},
		{
			"name":"Cylinder.023",
			"primitives":[
				{
					"attributes":{
						"POSITION":84,
						"NORMAL":85,
						"TEXCOORD_0":86
					},
					"indices":87,
					"material":0
				}
			]
		},
		{
			"name":"Cylinder.024",
			"primitives":[
				{
					"attributes":{
						"POSITION":88,
						"NORMAL":89,
						"TEXCOORD_0":90
					},
					"indices":91,
					"material":0
				}
			]
		},
		{
			"name":"Cylinder.025",
			"primitives":[
				{
					"attributes":{
						"POSITION":92,
						"NORMAL":93,
						"TEXCOORD_0":94
					},
					"indices":95,
					"material":0
				}
			]
		},
		{
			"name":"Cylinder.026",
			"primitives":[
				{
					"attributes":{
						"POSITION":96,
						"NORMAL":97,
						"TEXCOORD_0":98
					},
					"indices":99,
					"material":0
				}
			]
		},
		{
			"name":"Cylinder.027",
			"primitives":[
				{
					"attributes":{
						"POSITION":100,
						"NORMAL":101,
						"TEXCOORD_0":102
					},
					"indices":103,
					"material":0
				}
			]
		},
		{
			"name":"Cylinder.028",
			"primitives":[
				{
					"attributes":{
						"POSITION":104,
						"NORMAL":105,
						"TEXCOORD_0":106
					},
					"indices":107,
					"material":0
				}
			]
		},
		{
			"name":"Cylinder.029",
			"primitives":[
				{
					"attributes":{
						"POSITION":108,
						"NORMAL":109,
						"TEXCOORD_0":110
					},
					"indices":111,
					"material":0
				}
			]
		},
		{
			"name":"Cylinder.030",
			"primitives":[
				{
					"attributes":{
						"POSITION":112,
						"NORMAL":113,
						"TEXCOORD_0":114
					},
					"indices":115,
					"material":0
				}
			]
		},
		{
			"name":"Cylinder.032",
			"primitives":[
				{
					"attributes":{
						"POSITION":116,
						"NORMAL":117,
						"TEXCOORD_0":118
					},
					"indices":119,
					"material":0
				}
			]
		},
		{
			"name":"Cylinder.033",
			"primitives":[
				{
					"attributes":{
						"POSITION":120,
						"NORMAL":121,
						"TEXCOORD_0":122
					},
					"indices":123,
					"material":0
				}
			]
		},
		{
			"name":"Cylinder.034",
			"primitives":[
				{
					"attributes":{
						"POSITION":124,
						"NORMAL":125,
						"TEXCOORD_0":126
					},
					"indices":127,
					"material":0
				}
			]
		},
		{
			"name":"Cylinder.035",
			"primitives":[
				{
					"attributes":{
						"POSITION":128,
						"NORMAL":129,
						"TEXCOORD_0":130
					},
					"indices":131,
					"material":0
				}
			]
		},
		{
			"name":"Cylinder.036",
			"primitives":[
				{
					"attributes":{
						"POSITION":132,
						"NORMAL":133,
						"TEXCOORD_0":134
					},
					"indices":135,
					"material":0
				}
			]
		},
		{
			"name":"Cylinder.037",
			"primitives":[
				{
					"attributes":{
						"POSITION":136,
						"NORMAL":137,
						"TEXCOORD_0":138
					},
					"indices":139,
					"material":0
				}
			]
		},
		{
			"name":"Cylinder.038",
			"primitives":[
				{
					"attributes":{
						"POSITION":140,
						"NORMAL":141,
						"TEXCOORD_0":142
					},
					"indices":143,
					"material":0
				}
			]
		},
		{
			"name":"Cylinder.039",
			"primitives":[
				{
					"attributes":{
						"POSITION":144,
						"NORMAL":145,
						"TEXCOORD_0":146
					},
					"indices":147,
					"material":0
				}
			]
		},
		{
			"name":"Cylinder.040",
			"primitives":[
				{
					"attributes":{
						"POSITION":148,
						"NORMAL":149,
						"TEXCOORD_0":150
					},
					"indices":151,
					"material":0
				}
			]
		},
		{
			"name":"Cylinder.041",
			"primitives":[
				{
					"attributes":{
						"POSITION":152,
						"NORMAL":153,
						"TEXCOORD_0":154
					},
					"indices":155,
					"material":0
				}
			]
		},
		{
			"name":"Cylinder.042",
			"primitives":[
				{
					"attributes":{
						"POSITION":156,
						"NORMAL":157,
						"TEXCOORD_0":158
					},
					"indices":159,
					"material":0
				}
			]
		},
		{
			"name":"Cylinder.043",
			"primitives":[
				{
					"attributes":{
						"POSITION":160,
						"NORMAL":161,
						"TEXCOORD_0":162
					},
					"indices":163,
					"material":0
				}
			]
		},
		{
			"name":"Cylinder",
			"primitives":[
				{
					"attributes":{
						"POSITION":164,
						"NORMAL":165,
						"TEXCOORD_0":166
					},
					"indices":167,
					"material":1
				},
				{
					"attributes":{
						"POSITION":168,
						"NORMAL":169,
						"TEXCOORD_0":170
					},
					"indices":171,
					"material":2
				}
			]
		},
		{
			"name":"Cylinder.048",
			"primitives":[
				{
					"attributes":{
						"POSITION":172,
						"NORMAL":173,
						"TEXCOORD_0":174
					},
					"indices":175,
					"material":3
				}
			]
		},
		{
			"name":"Cylinder.001",
			"primitives":[
				{
					"attributes":{
						"POSITION":176,
						"NORMAL":177
					},
					"indices":178,
					"material":2
				}
			]
		}
	],
	"textures":[
		{
			"sampler":0,
			"source":0
		},
		{
			"sampler":0,
			"source":1
		},
		{
			"sampler":0,
			"source":2
		},
		{
			"sampler":0,
			"source":3
		},
		{
			"sampler":0,
			"source":4
		},
		{
			"sampler":0,
			"source":5
		},
		{
			"sampler":0,
			"source":6
		}
	],
	"images":[
		{
			"mimeType":"image/jpeg",
			"name":"marble01_specular",
			"uri":"Textures/marble01_specular.jpg"
		},
		{
			"mimeType":"image/jpeg",
			"name":"marble01_normal_opengl",
			"uri":"Textures/marble01_normal_opengl.jpg"
		},
		{
			"mimeType":"image/jpeg",
			"name":"marble01_diffuse",
			"uri":"Textures/marble01_diffuse.jpg"
		},
		{
			"mimeType":"image/png",
			"name":"marble01_roughness",
			"uri":"Textures/marble01_roughness.png"
		},
		{
			"mimeType":"image/jpeg",
			"name":"Small_stylized_tile_1_Normal_OpenGL",
			"uri":"Textures/Small_stylized_tile_1_Normal_OpenGL.jpg"
		},
		{
			"mimeType":"image/jpeg",
			"name":"Small_stylized_tile_1_mask",
			"uri":"Textures/Small_stylized_tile_1_mask.jpg"
		},
		{
			"mimeType":"image/png",
			"name":"Small_stylized_tile_1_Roughness",
			"uri":"Textures/Small_stylized_tile_1_Roughness.png"
		}
	],
	"accessors":[
		{
			"bufferView":0,
			"componentType":5126,
			"count":651,
			"max":[
				0.13090279698371887,
				0.3166762888431549,
				0.13097958266735077
			],
			"min":[
				-0.12826496362686157,
				-1.7223477363586426,
				-0.13008160889148712
			],
			"type":"VEC3"
		},
		{
			"bufferView":1,
			"componentType":5126,
			"count":651,
			"type":"VEC3"
		},
		{
			"bufferView":2,
			"componentType":5126,
			"count":651,
			"type":"VEC2"
		},
		{
			"bufferView":3,
			"componentType":5123,
			"count":2088,
			"type":"SCALAR"
		},
		{
			"bufferView":4,
			"componentType":5126,
			"count":782,
			"max":[
				0.15217362344264984,
				0.35099783539772034,
				0.15745103359222412
			],
			"min":[
				-0.15307177603244781,
				-1.7906283140182495,
				-0.15569603443145752
			],
			"type":"VEC3"
		},
		{
			"bufferView":5,
			"componentType":5126,
			"count":782,
			"type":"VEC3"
		},
		{
			"bufferView":6,
			"componentType":5126,
			"count":782,
			"type":"VEC2"
		},
		{
			"bufferView":7,
			"componentType":5123,
			"count":2088,
			"type":"SCALAR"
		},
		{
			"bufferView":8,
			"componentType":5126,
			"count":780,
			"max":[
				0.15062281489372253,
				0.3509978652000427,
				0.15931017696857452
			],
			"min":[
				-0.1513548195362091,
				-1.7906280755996704,
				-0.15747563540935516
			],
			"type":"VEC3"
		},
		{
			"bufferView":9,
			"componentType":5126,
			"count":780,
			"type":"VEC3"
		},
		{
			"bufferView":10,
			"componentType":5126,
			"count":780,
			"type":"VEC2"
		},
		{
			"bufferView":11,
			"componentType":5123,
			"count":2088,
			"type":"SCALAR"
		},
		{
			"bufferView":12,
			"componentType":5126,
			"count":796,
			"max":[
				0.14953479170799255,
				0.35099783539772034,
				0.16051270067691803
			],
			"min":[
				-0.14990368485450745,
				-1.790628433227539,
				-0.15946315228939056
			],
			"type":"VEC3"
		},
		{
			"bufferView":13,
			"componentType":5126,
			"count":796,
			"type":"VEC3"
		},
		{
			"bufferView":14,
			"componentType":5126,
			"count":796,
			"type":"VEC2"
		},
		{
			"bufferView":15,
			"componentType":5123,
			"count":2088,
			"type":"SCALAR"
		},
		{
			"bufferView":16,
			"componentType":5126,
			"count":797,
			"max":[
				0.1482921987771988,
				0.35099780559539795,
				0.15844474732875824
			],
			"min":[
				-0.14994178712368011,
				-1.7906283140182495,
				-0.15899766981601715
			],
			"type":"VEC3"
		},
		{
			"bufferView":17,
			"componentType":5126,
			"count":797,
			"type":"VEC3"
		},
		{
			"bufferView":18,
			"componentType":5126,
			"count":797,
			"type":"VEC2"
		},
		{
			"bufferView":19,
			"componentType":5123,
			"count":2088,
			"type":"SCALAR"
		},
		{
			"bufferView":20,
			"componentType":5126,
			"count":774,
			"max":[
				0.15025269985198975,
				0.3509977459907532,
				0.1589822620153427
			],
			"min":[
				-0.15040552616119385,
				-1.790628433227539,
				-0.15891744196414948
			],
			"type":"VEC3"
		},
		{
			"bufferView":21,
			"componentType":5126,
			"count":774,
			"type":"VEC3"
		},
		{
			"bufferView":22,
			"componentType":5126,
			"count":774,
			"type":"VEC2"
		},
		{
			"bufferView":23,
			"componentType":5123,
			"count":2088,
			"type":"SCALAR"
		},
		{
			"bufferView":24,
			"componentType":5126,
			"count":788,
			"max":[
				0.14984501898288727,
				0.35099777579307556,
				0.15896140038967133
			],
			"min":[
				-0.15000592172145844,
				-1.7906283140182495,
				-0.15889562666416168
			],
			"type":"VEC3"
		},
		{
			"bufferView":25,
			"componentType":5126,
			"count":788,
			"type":"VEC3"
		},
		{
			"bufferView":26,
			"componentType":5126,
			"count":788,
			"type":"VEC2"
		},
		{
			"bufferView":27,
			"componentType":5123,
			"count":2088,
			"type":"SCALAR"
		},
		{
			"bufferView":28,
			"componentType":5126,
			"count":801,
			"max":[
				0.151071697473526,
				0.35099780559539795,
				0.1581018567085266
			],
			"min":[
				-0.1514175832271576,
				-1.7906283140182495,
				-0.15903323888778687
			],
			"type":"VEC3"
		},
		{
			"bufferView":29,
			"componentType":5126,
			"count":801,
			"type":"VEC3"
		},
		{
			"bufferView":30,
			"componentType":5126,
			"count":801,
			"type":"VEC2"
		},
		{
			"bufferView":31,
			"componentType":5123,
			"count":2088,
			"type":"SCALAR"
		},
		{
			"bufferView":32,
			"componentType":5126,
			"count":774,
			"max":[
				0.15275146067142487,
				0.35099777579307556,
				0.15574346482753754
			],
			"min":[
				-0.15343378484249115,
				-1.79062819480896,
				-0.15665782988071442
			],
			"type":"VEC3"
		},
		{
			"bufferView":33,
			"componentType":5126,
			"count":774,
			"type":"VEC3"
		},
		{
			"bufferView":34,
			"componentType":5126,
			"count":774,
			"type":"VEC2"
		},
		{
			"bufferView":35,
			"componentType":5123,
			"count":2088,
			"type":"SCALAR"
		},
		{
			"bufferView":36,
			"componentType":5126,
			"count":766,
			"max":[
				0.14817924797534943,
				0.35099777579307556,
				0.16000351309776306
			],
			"min":[
				-0.14949874579906464,
				-1.7906283140182495,
				-0.1577114760875702
			],
			"type":"VEC3"
		},
		{
			"bufferView":37,
			"componentType":5126,
			"count":766,
			"type":"VEC3"
		},
		{
			"bufferView":38,
			"componentType":5126,
			"count":766,
			"type":"VEC2"
		},
		{
			"bufferView":39,
			"componentType":5123,
			"count":2088,
			"type":"SCALAR"
		},
		{
			"bufferView":40,
			"componentType":5126,
			"count":795,
			"max":[
				0.14901994168758392,
				0.3509978652000427,
				0.1582711786031723
			],
			"min":[
				-0.15031267702579498,
				-1.79062819480896,
				-0.1598585993051529
			],
			"type":"VEC3"
		},
		{
			"bufferView":41,
			"componentType":5126,
			"count":795,
			"type":"VEC3"
		},
		{
			"bufferView":42,
			"componentType":5126,
			"count":795,
			"type":"VEC2"
		},
		{
			"bufferView":43,
			"componentType":5123,
			"count":2088,
			"type":"SCALAR"
		},
		{
			"bufferView":44,
			"componentType":5126,
			"count":776,
			"max":[
				0.15176160633563995,
				0.3509979248046875,
				0.1562468260526657
			],
			"min":[
				-0.15326492488384247,
				-1.79062819480896,
				-0.15822120010852814
			],
			"type":"VEC3"
		},
		{
			"bufferView":45,
			"componentType":5126,
			"count":776,
			"type":"VEC3"
		},
		{
			"bufferView":46,
			"componentType":5126,
			"count":776,
			"type":"VEC2"
		},
		{
			"bufferView":47,
			"componentType":5123,
			"count":2088,
			"type":"SCALAR"
		},
		{
			"bufferView":48,
			"componentType":5126,
			"count":776,
			"max":[
				0.15420404076576233,
				0.3509979248046875,
				0.15299156308174133
			],
			"min":[
				-0.1560128629207611,
				-1.7906283140182495,
				-0.15484735369682312
			],
			"type":"VEC3"
		},
		{
			"bufferView":49,
			"componentType":5126,
			"count":776,
			"type":"VEC3"
		},
		{
			"bufferView":50,
			"componentType":5126,
			"count":776,
			"type":"VEC2"
		},
		{
			"bufferView":51,
			"componentType":5123,
			"count":2088,
			"type":"SCALAR"
		},
		{
			"bufferView":52,
			"componentType":5126,
			"count":795,
			"max":[
				0.15648725628852844,
				0.3509977161884308,
				0.15096992254257202
			],
			"min":[
				-0.1584922969341278,
				-1.790628433227539,
				-0.15278393030166626
			],
			"type":"VEC3"
		},
		{
			"bufferView":53,
			"componentType":5126,
			"count":795,
			"type":"VEC3"
		},
		{
			"bufferView":54,
			"componentType":5126,
			"count":795,
			"type":"VEC2"
		},
		{
			"bufferView":55,
			"componentType":5123,
			"count":2088,
			"type":"SCALAR"
		},
		{
			"bufferView":56,
			"componentType":5126,
			"count":787,
			"max":[
				0.15888658165931702,
				0.3509977459907532,
				0.1529034823179245
			],
			"min":[
				-0.15531215071678162,
				-1.7906283140182495,
				-0.1504267007112503
			],
			"type":"VEC3"
		},
		{
			"bufferView":57,
			"componentType":5126,
			"count":787,
			"type":"VEC3"
		},
		{
			"bufferView":58,
			"componentType":5126,
			"count":787,
			"type":"VEC2"
		},
		{
			"bufferView":59,
			"componentType":5123,
			"count":2088,
			"type":"SCALAR"
		},
		{
			"bufferView":60,
			"componentType":5126,
			"count":768,
			"max":[
				0.1524648368358612,
				0.35099777579307556,
				0.15543174743652344
			],
			"min":[
				-0.15461686253547668,
				-1.7906280755996704,
				-0.15675592422485352
			],
			"type":"VEC3"
		},
		{
			"bufferView":61,
			"componentType":5126,
			"count":768,
			"type":"VEC3"
		},
		{
			"bufferView":62,
			"componentType":5126,
			"count":768,
			"type":"VEC2"
		},
		{
			"bufferView":63,
			"componentType":5123,
			"count":2088,
			"type":"SCALAR"
		},
		{
			"bufferView":64,
			"componentType":5126,
			"count":777,
			"max":[
				0.15551379323005676,
				0.35099777579307556,
				0.1523868590593338
			],
			"min":[
				-0.15726837515830994,
				-1.790628433227539,
				-0.15328054130077362
			],
			"type":"VEC3"
		},
		{
			"bufferView":65,
			"componentType":5126,
			"count":777,
			"type":"VEC3"
		},
		{
			"bufferView":66,
			"componentType":5126,
			"count":777,
			"type":"VEC2"
		},
		{
			"bufferView":67,
			"componentType":5123,
			"count":2088,
			"type":"SCALAR"
		},
		{
			"bufferView":68,
			"componentType":5126,
			"count":749,
			"max":[
				0.1572844237089157,
				0.35099777579307556,
				0.15078690648078918
			],
			"min":[
				-0.15911956131458282,
				-1.7906283140182495,
				-0.15151163935661316
			],
			"type":"VEC3"
		},
		{
			"bufferView":69,
			"componentType":5126,
			"count":749,
			"type":"VEC3"
		},
		{
			"bufferView":70,
			"componentType":5126,
			"count":749,
			"type":"VEC2"
		},
		{
			"bufferView":71,
			"componentType":5123,
			"count":2088,
			"type":"SCALAR"
		},
		{
			"bufferView":72,
			"componentType":5126,
			"count":771,
			"max":[
				0.15936140716075897,
				0.35099783539772034,
				0.1496581733226776
			],
			"min":[
				-0.1604156345129013,
				-1.79062819480896,
				-0.1500244438648224
			],
			"type":"VEC3"
		},
		{
			"bufferView":73,
			"componentType":5126,
			"count":771,
			"type":"VEC3"
		},
		{
			"bufferView":74,
			"componentType":5126,
			"count":771,
			"type":"VEC2"
		},
		{
			"bufferView":75,
			"componentType":5123,
			"count":2088,
			"type":"SCALAR"
		},
		{
			"bufferView":76,
			"componentType":5126,
			"count":778,
			"max":[
				0.15894246101379395,
				0.35099780559539795,
				0.14869655668735504
			],
			"min":[
				-0.15884000062942505,
				-1.79062819480896,
				-0.1496800035238266
			],
			"type":"VEC3"
		},
		{
			"bufferView":77,
			"componentType":5126,
			"count":778,
			"type":"VEC3"
		},
		{
			"bufferView":78,
			"componentType":5126,
			"count":778,
			"type":"VEC2"
		},
		{
			"bufferView":79,
			"componentType":5123,
			"count":2088,
			"type":"SCALAR"
		},
		{
			"bufferView":80,
			"componentType":5126,
			"count":788,
			"max":[
				0.1589222103357315,
				0.3509979248046875,
				0.15026620030403137
			],
			"min":[
				-0.1589881032705307,
				-1.79062819480896,
				-0.1504187285900116
			],
			"type":"VEC3"
		},
		{
			"bufferView":81,
			"componentType":5126,
			"count":788,
			"type":"VEC3"
		},
		{
			"bufferView":82,
			"componentType":5126,
			"count":788,
			"type":"VEC2"
		},
		{
			"bufferView":83,
			"componentType":5123,
			"count":2088,
			"type":"SCALAR"
		},
		{
			"bufferView":84,
			"componentType":5126,
			"count":784,
			"max":[
				0.15889431536197662,
				0.3509977459907532,
				0.14980080723762512
			],
			"min":[
				-0.15895985066890717,
				-1.790628433227539,
				-0.14996382594108582
			],
			"type":"VEC3"
		},
		{
			"bufferView":85,
			"componentType":5126,
			"count":784,
			"type":"VEC3"
		},
		{
			"bufferView":86,
			"componentType":5126,
			"count":784,
			"type":"VEC2"
		},
		{
			"bufferView":87,
			"componentType":5123,
			"count":2088,
			"type":"SCALAR"
		},
		{
			"bufferView":88,
			"componentType":5126,
			"count":791,
			"max":[
				0.15913517773151398,
				0.35099780559539795,
				0.1509736329317093
			],
			"min":[
				-0.15820471942424774,
				-1.7906283140182495,
				-0.15132395923137665
			],
			"type":"VEC3"
		},
		{
			"bufferView":89,
			"componentType":5126,
			"count":791,
			"type":"VEC3"
		},
		{
			"bufferView":90,
			"componentType":5126,
			"count":791,
			"type":"VEC2"
		},
		{
			"bufferView":91,
			"componentType":5123,
			"count":2088,
			"type":"SCALAR"
		},
		{
			"bufferView":92,
			"componentType":5126,
			"count":778,
			"max":[
				0.15675203502178192,
				0.35099780559539795,
				0.15261085331439972
			],
			"min":[
				-0.1558419018983841,
				-1.7906283140182495,
				-0.1533011645078659
			],
			"type":"VEC3"
		},
		{
			"bufferView":93,
			"componentType":5126,
			"count":778,
			"type":"VEC3"
		},
		{
			"bufferView":94,
			"componentType":5126,
			"count":778,
			"type":"VEC2"
		},
		{
			"bufferView":95,
			"componentType":5123,
			"count":2088,
			"type":"SCALAR"
		},
		{
			"bufferView":96,
			"componentType":5126,
			"count":780,
			"max":[
				0.15652304887771606,
				0.35099780559539795,
				0.15122979879379272
			],
			"min":[
				-0.15993326902389526,
				-1.790628433227539,
				-0.1499210000038147
			],
			"type":"VEC3"
		},
		{
			"bufferView":97,
			"componentType":5126,
			"count":780,
			"type":"VEC3"
		},
		{
			"bufferView":98,
			"componentType":5126,
			"count":780,
			"type":"VEC2"
		},
		{
			"bufferView":99,
			"componentType":5123,
			"count":2088,
			"type":"SCALAR"
		},
		{
			"bufferView":100,
			"componentType":5126,
			"count":795,
			"max":[
				0.16003164649009705,
				0.35099783539772034,
				0.14880836009979248
			],
			"min":[
				-0.15844455361366272,
				-1.7906283140182495,
				-0.1501089334487915
			],
			"type":"VEC3"
		},
		{
			"bufferView":101,
			"componentType":5126,
			"count":795,
			"type":"VEC3"
		},
		{
			"bufferView":102,
			"componentType":5126,
			"count":795,
			"type":"VEC2"
		},
		{
			"bufferView":103,
			"componentType":5123,
			"count":2088,
			"type":"SCALAR"
		},
		{
			"bufferView":104,
			"componentType":5126,
			"count":777,
			"max":[
				0.15845637023448944,
				0.3509977459907532,
				0.15150697529315948
			],
			"min":[
				-0.15648885071277618,
				-1.790628433227539,
				-0.15301935374736786
			],
			"type":"VEC3"
		},
		{
			"bufferView":105,
			"componentType":5126,
			"count":777,
			"type":"VEC3"
		},
		{
			"bufferView":106,
			"componentType":5126,
			"count":777,
			"type":"VEC2"
		},
		{
			"bufferView":107,
			"componentType":5123,
			"count":2088,
			"type":"SCALAR"
		},
		{
			"bufferView":108,
			"componentType":5126,
			"count":776,
			"max":[
				0.15512846410274506,
				0.3509978652000427,
				0.15396200120449066
			],
			"min":[
				-0.1532125622034073,
				-1.79062819480896,
				-0.15577687323093414
			],
			"type":"VEC3"
		},
		{
			"bufferView":109,
			"componentType":5126,
			"count":776,
			"type":"VEC3"
		},
		{
			"bufferView":110,
			"componentType":5126,
			"count":776,
			"type":"VEC2"
		},
		{
			"bufferView":111,
			"componentType":5123,
			"count":2088,
			"type":"SCALAR"
		},
		{
			"bufferView":112,
			"componentType":5126,
			"count":773,
			"max":[
				0.15303362905979156,
				0.35099777579307556,
				0.15621398389339447
			],
			"min":[
				-0.15122662484645844,
				-1.79062819480896,
				-0.15822531282901764
			],
			"type":"VEC3"
		},
		{
			"bufferView":113,
			"componentType":5126,
			"count":773,
			"type":"VEC3"
		},
		{
			"bufferView":114,
			"componentType":5126,
			"count":773,
			"type":"VEC2"
		},
		{
			"bufferView":115,
			"componentType":5123,
			"count":2088,
			"type":"SCALAR"
		},
		{
			"bufferView":116,
			"componentType":5126,
			"count":772,
			"max":[
				0.1552012413740158,
				0.35099783539772034,
				0.15486226975917816
			],
			"min":[
				-0.15652890503406525,
				-1.790628433227539,
				-0.15271343290805817
			],
			"type":"VEC3"
		},
		{
			"bufferView":117,
			"componentType":5126,
			"count":772,
			"type":"VEC3"
		},
		{
			"bufferView":118,
			"componentType":5126,
			"count":772,
			"type":"VEC2"
		},
		{
			"bufferView":119,
			"componentType":5123,
			"count":2088,
			"type":"SCALAR"
		},
		{
			"bufferView":120,
			"componentType":5126,
			"count":681,
			"max":[
				0.13301847875118256,
				0.3166763484477997,
				0.12678171694278717
			],
			"min":[
				-0.13414731621742249,
				-1.7223477363586426,
				-0.1259918063879013
			],
			"type":"VEC3"
		},
		{
			"bufferView":121,
			"componentType":5126,
			"count":681,
			"type":"VEC3"
		},
		{
			"bufferView":122,
			"componentType":5126,
			"count":681,
			"type":"VEC2"
		},
		{
			"bufferView":123,
			"componentType":5123,
			"count":2088,
			"type":"SCALAR"
		},
		{
			"bufferView":124,
			"componentType":5126,
			"count":680,
			"max":[
				0.13283219933509827,
				0.3166763186454773,
				0.12602965533733368
			],
			"min":[
				-0.13429637253284454,
				-1.7223477363586426,
				-0.12487254291772842
			],
			"type":"VEC3"
		},
		{
			"bufferView":125,
			"componentType":5126,
			"count":680,
			"type":"VEC3"
		},
		{
			"bufferView":126,
			"componentType":5126,
			"count":680,
			"type":"VEC2"
		},
		{
			"bufferView":127,
			"componentType":5123,
			"count":2088,
			"type":"SCALAR"
		},
		{
			"bufferView":128,
			"componentType":5126,
			"count":685,
			"max":[
				0.1294867843389511,
				0.3166762590408325,
				0.13084407150745392
			],
			"min":[
				-0.131144180893898,
				-1.7223479747772217,
				-0.12936966121196747
			],
			"type":"VEC3"
		},
		{
			"bufferView":129,
			"componentType":5126,
			"count":685,
			"type":"VEC3"
		},
		{
			"bufferView":130,
			"componentType":5126,
			"count":685,
			"type":"VEC2"
		},
		{
			"bufferView":131,
			"componentType":5123,
			"count":2088,
			"type":"SCALAR"
		},
		{
			"bufferView":132,
			"componentType":5126,
			"count":678,
			"max":[
				0.12589111924171448,
				0.3166762888431549,
				0.1331162005662918
			],
			"min":[
				-0.12698110938072205,
				-1.7223477363586426,
				-0.1338931769132614
			],
			"type":"VEC3"
		},
		{
			"bufferView":133,
			"componentType":5126,
			"count":678,
			"type":"VEC3"
		},
		{
			"bufferView":134,
			"componentType":5126,
			"count":678,
			"type":"VEC2"
		},
		{
			"bufferView":135,
			"componentType":5123,
			"count":2088,
			"type":"SCALAR"
		},
		{
			"bufferView":136,
			"componentType":5126,
			"count":686,
			"max":[
				0.12519225478172302,
				0.3166762888431549,
				0.1316651850938797
			],
			"min":[
				-0.12594881653785706,
				-1.7223477363586426,
				-0.13420884311199188
			],
			"type":"VEC3"
		},
		{
			"bufferView":137,
			"componentType":5126,
			"count":686,
			"type":"VEC3"
		},
		{
			"bufferView":138,
			"componentType":5126,
			"count":686,
			"type":"VEC2"
		},
		{
			"bufferView":139,
			"componentType":5123,
			"count":2088,
			"type":"SCALAR"
		},
		{
			"bufferView":140,
			"componentType":5126,
			"count":682,
			"max":[
				0.13065622746944427,
				0.3166762888431549,
				0.12876243889331818
			],
			"min":[
				-0.13059665262699127,
				-1.7223477363586426,
				-0.1314348429441452
			],
			"type":"VEC3"
		},
		{
			"bufferView":141,
			"componentType":5126,
			"count":682,
			"type":"VEC3"
		},
		{
			"bufferView":142,
			"componentType":5126,
			"count":682,
			"type":"VEC2"
		},
		{
			"bufferView":143,
			"componentType":5123,
			"count":2088,
			"type":"SCALAR"
		},
		{
			"bufferView":144,
			"componentType":5126,
			"count":685,
			"max":[
				0.13367703557014465,
				0.3166763186454773,
				0.12578637897968292
			],
			"min":[
				-0.13316580653190613,
				-1.7223479747772217,
				-0.12718097865581512
			],
			"type":"VEC3"
		},
		{
			"bufferView":145,
			"componentType":5126,
			"count":685,
			"type":"VEC3"
		},
		{
			"bufferView":146,
			"componentType":5126,
			"count":685,
			"type":"VEC2"
		},
		{
			"bufferView":147,
			"componentType":5123,
			"count":2088,
			"type":"SCALAR"
		},
		{
			"bufferView":148,
			"componentType":5126,
			"count":683,
			"max":[
				0.1343316286802292,
				0.3166762888431549,
				0.1256115436553955
			],
			"min":[
				-0.1302986890077591,
				-1.722347617149353,
				-0.12576651573181152
			],
			"type":"VEC3"
		},
		{
			"bufferView":149,
			"componentType":5126,
			"count":683,
			"type":"VEC3"
		},
		{
			"bufferView":150,
			"componentType":5126,
			"count":683,
			"type":"VEC2"
		},
		{
			"bufferView":151,
			"componentType":5123,
			"count":2088,
			"type":"SCALAR"
		},
		{
			"bufferView":152,
			"componentType":5126,
			"count":672,
			"max":[
				0.13104631006717682,
				0.3166763186454773,
				0.12749727070331573
			],
			"min":[
				-0.13044069707393646,
				-1.7223479747772217,
				-0.13061611354351044
			],
			"type":"VEC3"
		},
		{
			"bufferView":153,
			"componentType":5126,
			"count":672,
			"type":"VEC3"
		},
		{
			"bufferView":154,
			"componentType":5126,
			"count":672,
			"type":"VEC2"
		},
		{
			"bufferView":155,
			"componentType":5123,
			"count":2088,
			"type":"SCALAR"
		},
		{
			"bufferView":156,
			"componentType":5126,
			"count":683,
			"max":[
				0.12659840285778046,
				0.3166763186454773,
				0.13459759950637817
			],
			"min":[
				-0.12607760727405548,
				-1.7223478555679321,
				-0.13271301984786987
			],
			"type":"VEC3"
		},
		{
			"bufferView":157,
			"componentType":5126,
			"count":683,
			"type":"VEC3"
		},
		{
			"bufferView":158,
			"componentType":5126,
			"count":683,
			"type":"VEC2"
		},
		{
			"bufferView":159,
			"componentType":5123,
			"count":2088,
			"type":"SCALAR"
		},
		{
			"bufferView":160,
			"componentType":5126,
			"count":680,
			"max":[
				0.12592419981956482,
				0.3166763186454773,
				0.13477689027786255
			],
			"min":[
				-0.12473838031291962,
				-1.7223480939865112,
				-0.13359612226486206
			],
			"type":"VEC3"
		},
		{
			"bufferView":161,
			"componentType":5126,
			"count":680,
			"type":"VEC3"
		},
		{
			"bufferView":162,
			"componentType":5126,
			"count":680,
			"type":"VEC2"
		},
		{
			"bufferView":163,
			"componentType":5123,
			"count":2088,
			"type":"SCALAR"
		},
		{
			"bufferView":164,
			"componentType":5126,
			"count":885,
			"max":[
				10,
				2.79819655418396,
				7.555669784545898
			],
			"min":[
				-10,
				-2.201805353164673,
				-6.917718410491943
			],
			"type":"VEC3"
		},
		{
			"bufferView":165,
			"componentType":5126,
			"count":885,
			"type":"VEC3"
		},
		{
			"bufferView":166,
			"componentType":5126,
			"count":885,
			"type":"VEC2"
		},
		{
			"bufferView":167,
			"componentType":5123,
			"count":2814,
			"type":"SCALAR"
		},
		{
			"bufferView":168,
			"componentType":5126,
			"count":64,
			"max":[
				9.448335647583008,
				0.09819573163986206,
				7.053250312805176
			],
			"min":[
				-9.448335647583008,
				0.09819382429122925,
				-6.415298938751221
			],
			"type":"VEC3"
		},
		{
			"bufferView":169,
			"componentType":5126,
			"count":64,
			"type":"VEC3"
		},
		{
			"bufferView":170,
			"componentType":5126,
			"count":64,
			"type":"VEC2"
		},
		{
			"bufferView":171,
			"componentType":5123,
			"count":192,
			"type":"SCALAR"
		},
		{
			"bufferView":172,
			"componentType":5126,
			"count":64,
			"max":[
				9.448335647583008,
				1.434236764907837e-06,
				6.730854511260986
			],
			"min":[
				-9.448335647583008,
				-4.731118679046631e-07,
				-6.737694263458252
			],
			"type":"VEC3"
		},
		{
			"bufferView":173,
			"componentType":5126,
			"count":64,
			"type":"VEC3"
		},
		{
			"bufferView":174,
			"componentType":5126,
			"count":64,
			"type":"VEC2"
		},
		{
			"bufferView":175,
			"componentType":5123,
			"count":192,
			"type":"SCALAR"
		},
		{
			"bufferView":176,
			"componentType":5126,
			"count":271679,
			"max":[
				6.80033016204834,
				0.9274125099182129,
				2.3773741722106934
			],
			"min":[
				-6.7952117919921875,
				-1.5093611478805542,
				-2.8757145404815674
			],
			"type":"VEC3"
		},
		{
			"bufferView":177,
			"componentType":5126,
			"count":271679,
			"type":"VEC3"
		},
		{
			"bufferView":178,
			"componentType":5125,
			"count":1622592,
			"type":"SCALAR"
		}
	],
	"bufferViews":[
		{
			"buffer":0,
			"byteLength":7812,
			"byteOffset":0,
			"target":34962
		},
		{
			"buffer":0,
			"byteLength":7812,
			"byteOffset":7812,
			"target":34962
		},
		{
			"buffer":0,
			"byteLength":5208,
			"byteOffset":15624,
			"target":34962
		},
		{
			"buffer":0,
			"byteLength":4176,
			"byteOffset":20832,
			"target":34963
		},
		{
			"buffer":0,
			"byteLength":9384,
			"byteOffset":25008,
			"target":34962
		},
		{
			"buffer":0,
			"byteLength":9384,
			"byteOffset":34392,
			"target":34962
		},
		{
			"buffer":0,
			"byteLength":6256,
			"byteOffset":43776,
			"target":34962
		},
		{
			"buffer":0,
			"byteLength":4176,
			"byteOffset":50032,
			"target":34963
		},
		{
			"buffer":0,
			"byteLength":9360,
			"byteOffset":54208,
			"target":34962
		},
		{
			"buffer":0,
			"byteLength":9360,
			"byteOffset":63568,
			"target":34962
		},
		{
			"buffer":0,
			"byteLength":6240,
			"byteOffset":72928,
			"target":34962
		},
		{
			"buffer":0,
			"byteLength":4176,
			"byteOffset":79168,
			"target":34963
		},
		{
			"buffer":0,
			"byteLength":9552,
			"byteOffset":83344,
			"target":34962
		},
		{
			"buffer":0,
			"byteLength":9552,
			"byteOffset":92896,
			"target":34962
		},
		{
			"buffer":0,
			"byteLength":6368,
			"byteOffset":102448,
			"target":34962
		},
		{
			"buffer":0,
			"byteLength":4176,
			"byteOffset":108816,
			"target":34963
		},
		{
			"buffer":0,
			"byteLength":9564,
			"byteOffset":112992,
			"target":34962
		},
		{
			"buffer":0,
			"byteLength":9564,
			"byteOffset":122556,
			"target":34962
		},
		{
			"buffer":0,
			"byteLength":6376,
			"byteOffset":132120,
			"target":34962
		},
		{
			"buffer":0,
			"byteLength":4176,
			"byteOffset":138496,
			"target":34963
		},
		{
			"buffer":0,
			"byteLength":9288,
			"byteOffset":142672,
			"target":34962
		},
		{
			"buffer":0,
			"byteLength":9288,
			"byteOffset":151960,
			"target":34962
		},
		{
			"buffer":0,
			"byteLength":6192,
			"byteOffset":161248,
			"target":34962
		},
		{
			"buffer":0,
			"byteLength":4176,
			"byteOffset":167440,
			"target":34963
		},
		{
			"buffer":0,
			"byteLength":9456,
			"byteOffset":171616,
			"target":34962
		},
		{
			"buffer":0,
			"byteLength":9456,
			"byteOffset":181072,
			"target":34962
		},
		{
			"buffer":0,
			"byteLength":6304,
			"byteOffset":190528,
			"target":34962
		},
		{
			"buffer":0,
			"byteLength":4176,
			"byteOffset":196832,
			"target":34963
		},
		{
			"buffer":0,
			"byteLength":9612,
			"byteOffset":201008,
			"target":34962
		},
		{
			"buffer":0,
			"byteLength":9612,
			"byteOffset":210620,
			"target":34962
		},
		{
			"buffer":0,
			"byteLength":6408,
			"byteOffset":220232,
			"target":34962
		},
		{
			"buffer":0,
			"byteLength":4176,
			"byteOffset":226640,
			"target":34963
		},
		{
			"buffer":0,
			"byteLength":9288,
			"byteOffset":230816,
			"target":34962
		},
		{
			"buffer":0,
			"byteLength":9288,
			"byteOffset":240104,
			"target":34962
		},
		{
			"buffer":0,
			"byteLength":6192,
			"byteOffset":249392,
			"target":34962
		},
		{
			"buffer":0,
			"byteLength":4176,
			"byteOffset":255584,
			"target":34963
		},
		{
			"buffer":0,
			"byteLength":9192,
			"byteOffset":259760,
			"target":34962
		},
		{
			"buffer":0,
			"byteLength":9192,
			"byteOffset":268952,
			"target":34962
		},
		{
			"buffer":0,
			"byteLength":6128,
			"byteOffset":278144,
			"target":34962
		},
		{
			"buffer":0,
			"byteLength":4176,
			"byteOffset":284272,
			"target":34963
		},
		{
			"buffer":0,
			"byteLength":9540,
			"byteOffset":288448,
			"target":34962
		},
		{
			"buffer":0,
			"byteLength":9540,
			"byteOffset":297988,
			"target":34962
		},
		{
			"buffer":0,
			"byteLength":6360,
			"byteOffset":307528,
			"target":34962
		},
		{
			"buffer":0,
			"byteLength":4176,
			"byteOffset":313888,
			"target":34963
		},
		{
			"buffer":0,
			"byteLength":9312,
			"byteOffset":318064,
			"target":34962
		},
		{
			"buffer":0,
			"byteLength":9312,
			"byteOffset":327376,
			"target":34962
		},
		{
			"buffer":0,
			"byteLength":6208,
			"byteOffset":336688,
			"target":34962
		},
		{
			"buffer":0,
			"byteLength":4176,
			"byteOffset":342896,
			"target":34963
		},
		{
			"buffer":0,
			"byteLength":9312,
			"byteOffset":347072,
			"target":34962
		},
		{
			"buffer":0,
			"byteLength":9312,
			"byteOffset":356384,
			"target":34962
		},
		{
			"buffer":0,
			"byteLength":6208,
			"byteOffset":365696,
			"target":34962
		},
		{
			"buffer":0,
			"byteLength":4176,
			"byteOffset":371904,
			"target":34963
		},
		{
			"buffer":0,
			"byteLength":9540,
			"byteOffset":376080,
			"target":34962
		},
		{
			"buffer":0,
			"byteLength":9540,
			"byteOffset":385620,
			"target":34962
		},
		{
			"buffer":0,
			"byteLength":6360,
			"byteOffset":395160,
			"target":34962
		},
		{
			"buffer":0,
			"byteLength":4176,
			"byteOffset":401520,
			"target":34963
		},
		{
			"buffer":0,
			"byteLength":9444,
			"byteOffset":405696,
			"target":34962
		},
		{
			"buffer":0,
			"byteLength":9444,
			"byteOffset":415140,
			"target":34962
		},
		{
			"buffer":0,
			"byteLength":6296,
			"byteOffset":424584,
			"target":34962
		},
		{
			"buffer":0,
			"byteLength":4176,
			"byteOffset":430880,
			"target":34963
		},
		{
			"buffer":0,
			"byteLength":9216,
			"byteOffset":435056,
			"target":34962
		},
		{
			"buffer":0,
			"byteLength":9216,
			"byteOffset":444272,
			"target":34962
		},
		{
			"buffer":0,
			"byteLength":6144,
			"byteOffset":453488,
			"target":34962
		},
		{
			"buffer":0,
			"byteLength":4176,
			"byteOffset":459632,
			"target":34963
		},
		{
			"buffer":0,
			"byteLength":9324,
			"byteOffset":463808,
			"target":34962
		},
		{
			"buffer":0,
			"byteLength":9324,
			"byteOffset":473132,
			"target":34962
		},
		{
			"buffer":0,
			"byteLength":6216,
			"byteOffset":482456,
			"target":34962
		},
		{
			"buffer":0,
			"byteLength":4176,
			"byteOffset":488672,
			"target":34963
		},
		{
			"buffer":0,
			"byteLength":8988,
			"byteOffset":492848,
			"target":34962
		},
		{
			"buffer":0,
			"byteLength":8988,
			"byteOffset":501836,
			"target":34962
		},
		{
			"buffer":0,
			"byteLength":5992,
			"byteOffset":510824,
			"target":34962
		},
		{
			"buffer":0,
			"byteLength":4176,
			"byteOffset":516816,
			"target":34963
		},
		{
			"buffer":0,
			"byteLength":9252,
			"byteOffset":520992,
			"target":34962
		},
		{
			"buffer":0,
			"byteLength":9252,
			"byteOffset":530244,
			"target":34962
		},
		{
			"buffer":0,
			"byteLength":6168,
			"byteOffset":539496,
			"target":34962
		},
		{
			"buffer":0,
			"byteLength":4176,
			"byteOffset":545664,
			"target":34963
		},
		{
			"buffer":0,
			"byteLength":9336,
			"byteOffset":549840,
			"target":34962
		},
		{
			"buffer":0,
			"byteLength":9336,
			"byteOffset":559176,
			"target":34962
		},
		{
			"buffer":0,
			"byteLength":6224,
			"byteOffset":568512,
			"target":34962
		},
		{
			"buffer":0,
			"byteLength":4176,
			"byteOffset":574736,
			"target":34963
		},
		{
			"buffer":0,
			"byteLength":9456,
			"byteOffset":578912,
			"target":34962
		},
		{
			"buffer":0,
			"byteLength":9456,
			"byteOffset":588368,
			"target":34962
		},
		{
			"buffer":0,
			"byteLength":6304,
			"byteOffset":597824,
			"target":34962
		},
		{
			"buffer":0,
			"byteLength":4176,
			"byteOffset":604128,
			"target":34963
		},
		{
			"buffer":0,
			"byteLength":9408,
			"byteOffset":608304,
			"target":34962
		},
		{
			"buffer":0,
			"byteLength":9408,
			"byteOffset":617712,
			"target":34962
		},
		{
			"buffer":0,
			"byteLength":6272,
			"byteOffset":627120,
			"target":34962
		},
		{
			"buffer":0,
			"byteLength":4176,
			"byteOffset":633392,
			"target":34963
		},
		{
			"buffer":0,
			"byteLength":9492,
			"byteOffset":637568,
			"target":34962
		},
		{
			"buffer":0,
			"byteLength":9492,
			"byteOffset":647060,
			"target":34962
		},
		{
			"buffer":0,
			"byteLength":6328,
			"byteOffset":656552,
			"target":34962
		},
		{
			"buffer":0,
			"byteLength":4176,
			"byteOffset":662880,
			"target":34963
		},
		{
			"buffer":0,
			"byteLength":9336,
			"byteOffset":667056,
			"target":34962
		},
		{
			"buffer":0,
			"byteLength":9336,
			"byteOffset":676392,
			"target":34962
		},
		{
			"buffer":0,
			"byteLength":6224,
			"byteOffset":685728,
			"target":34962
		},
		{
			"buffer":0,
			"byteLength":4176,
			"byteOffset":691952,
			"target":34963
		},
		{
			"buffer":0,
			"byteLength":9360,
			"byteOffset":696128,
			"target":34962
		},
		{
			"buffer":0,
			"byteLength":9360,
			"byteOffset":705488,
			"target":34962
		},
		{
			"buffer":0,
			"byteLength":6240,
			"byteOffset":714848,
			"target":34962
		},
		{
			"buffer":0,
			"byteLength":4176,
			"byteOffset":721088,
			"target":34963
		},
		{
			"buffer":0,
			"byteLength":9540,
			"byteOffset":725264,
			"target":34962
		},
		{
			"buffer":0,
			"byteLength":9540,
			"byteOffset":734804,
			"target":34962
		},
		{
			"buffer":0,
			"byteLength":6360,
			"byteOffset":744344,
			"target":34962
		},
		{
			"buffer":0,
			"byteLength":4176,
			"byteOffset":750704,
			"target":34963
		},
		{
			"buffer":0,
			"byteLength":9324,
			"byteOffset":754880,
			"target":34962
		},
		{
			"buffer":0,
			"byteLength":9324,
			"byteOffset":764204,
			"target":34962
		},
		{
			"buffer":0,
			"byteLength":6216,
			"byteOffset":773528,
			"target":34962
		},
		{
			"buffer":0,
			"byteLength":4176,
			"byteOffset":779744,
			"target":34963
		},
		{
			"buffer":0,
			"byteLength":9312,
			"byteOffset":783920,
			"target":34962
		},
		{
			"buffer":0,
			"byteLength":9312,
			"byteOffset":793232,
			"target":34962
		},
		{
			"buffer":0,
			"byteLength":6208,
			"byteOffset":802544,
			"target":34962
		},
		{
			"buffer":0,
			"byteLength":4176,
			"byteOffset":808752,
			"target":34963
		},
		{
			"buffer":0,
			"byteLength":9276,
			"byteOffset":812928,
			"target":34962
		},
		{
			"buffer":0,
			"byteLength":9276,
			"byteOffset":822204,
			"target":34962
		},
		{
			"buffer":0,
			"byteLength":6184,
			"byteOffset":831480,
			"target":34962
		},
		{
			"buffer":0,
			"byteLength":4176,
			"byteOffset":837664,
			"target":34963
		},
		{
			"buffer":0,
			"byteLength":9264,
			"byteOffset":841840,
			"target":34962
		},
		{
			"buffer":0,
			"byteLength":9264,
			"byteOffset":851104,
			"target":34962
		},
		{
			"buffer":0,
			"byteLength":6176,
			"byteOffset":860368,
			"target":34962
		},
		{
			"buffer":0,
			"byteLength":4176,
			"byteOffset":866544,
			"target":34963
		},
		{
			"buffer":0,
			"byteLength":8172,
			"byteOffset":870720,
			"target":34962
		},
		{
			"buffer":0,
			"byteLength":8172,
			"byteOffset":878892,
			"target":34962
		},
		{
			"buffer":0,
			"byteLength":5448,
			"byteOffset":887064,
			"target":34962
		},
		{
			"buffer":0,
			"byteLength":4176,
			"byteOffset":892512,
			"target":34963
		},
		{
			"buffer":0,
			"byteLength":8160,
			"byteOffset":896688,
			"target":34962
		},
		{
			"buffer":0,
			"byteLength":8160,
			"byteOffset":904848,
			"target":34962
		},
		{
			"buffer":0,
			"byteLength":5440,
			"byteOffset":913008,
			"target":34962
		},
		{
			"buffer":0,
			"byteLength":4176,
			"byteOffset":918448,
			"target":34963
		},
		{
			"buffer":0,
			"byteLength":8220,
			"byteOffset":922624,
			"target":34962
		},
		{
			"buffer":0,
			"byteLength":8220,
			"byteOffset":930844,
			"target":34962
		},
		{
			"buffer":0,
			"byteLength":5480,
			"byteOffset":939064,
			"target":34962
		},
		{
			"buffer":0,
			"byteLength":4176,
			"byteOffset":944544,
			"target":34963
		},
		{
			"buffer":0,
			"byteLength":8136,
			"byteOffset":948720,
			"target":34962
		},
		{
			"buffer":0,
			"byteLength":8136,
			"byteOffset":956856,
			"target":34962
		},
		{
			"buffer":0,
			"byteLength":5424,
			"byteOffset":964992,
			"target":34962
		},
		{
			"buffer":0,
			"byteLength":4176,
			"byteOffset":970416,
			"target":34963
		},
		{
			"buffer":0,
			"byteLength":8232,
			"byteOffset":974592,
			"target":34962
		},
		{
			"buffer":0,
			"byteLength":8232,
			"byteOffset":982824,
			"target":34962
		},
		{
			"buffer":0,
			"byteLength":5488,
			"byteOffset":991056,
			"target":34962
		},
		{
			"buffer":0,
			"byteLength":4176,
			"byteOffset":996544,
			"target":34963
		},
		{
			"buffer":0,
			"byteLength":8184,
			"byteOffset":1000720,
			"target":34962
		},
		{
			"buffer":0,
			"byteLength":8184,
			"byteOffset":1008904,
			"target":34962
		},
		{
			"buffer":0,
			"byteLength":5456,
			"byteOffset":1017088,
			"target":34962
		},
		{
			"buffer":0,
			"byteLength":4176,
			"byteOffset":1022544,
			"target":34963
		},
		{
			"buffer":0,
			"byteLength":8220,
			"byteOffset":1026720,
			"target":34962
		},
		{
			"buffer":0,
			"byteLength":8220,
			"byteOffset":1034940,
			"target":34962
		},
		{
			"buffer":0,
			"byteLength":5480,
			"byteOffset":1043160,
			"target":34962
		},
		{
			"buffer":0,
			"byteLength":4176,
			"byteOffset":1048640,
			"target":34963
		},
		{
			"buffer":0,
			"byteLength":8196,
			"byteOffset":1052816,
			"target":34962
		},
		{
			"buffer":0,
			"byteLength":8196,
			"byteOffset":1061012,
			"target":34962
		},
		{
			"buffer":0,
			"byteLength":5464,
			"byteOffset":1069208,
			"target":34962
		},
		{
			"buffer":0,
			"byteLength":4176,
			"byteOffset":1074672,
			"target":34963
		},
		{
			"buffer":0,
			"byteLength":8064,
			"byteOffset":1078848,
			"target":34962
		},
		{
			"buffer":0,
			"byteLength":8064,
			"byteOffset":1086912,
			"target":34962
		},
		{
			"buffer":0,
			"byteLength":5376,
			"byteOffset":1094976,
			"target":34962
		},
		{
			"buffer":0,
			"byteLength":4176,
			"byteOffset":1100352,
			"target":34963
		},
		{
			"buffer":0,
			"byteLength":8196,
			"byteOffset":1104528,
			"target":34962
		},
		{
			"buffer":0,
			"byteLength":8196,
			"byteOffset":1112724,
			"target":34962
		},
		{
			"buffer":0,
			"byteLength":5464,
			"byteOffset":1120920,
			"target":34962
		},
		{
			"buffer":0,
			"byteLength":4176,
			"byteOffset":1126384,
			"target":34963
		},
		{
			"buffer":0,
			"byteLength":8160,
			"byteOffset":1130560,
			"target":34962
		},
		{
			"buffer":0,
			"byteLength":8160,
			"byteOffset":1138720,
			"target":34962
		},
		{
			"buffer":0,
			"byteLength":5440,
			"byteOffset":1146880,
			"target":34962
		},
		{
			"buffer":0,
			"byteLength":4176,
			"byteOffset":1152320,
			"target":34963
		},
		{
			"buffer":0,
			"byteLength":10620,
			"byteOffset":1156496,
			"target":34962
		},
		{
			"buffer":0,
			"byteLength":10620,
			"byteOffset":1167116,
			"target":34962
		},
		{
			"buffer":0,
			"byteLength":7080,
			"byteOffset":1177736,
			"target":34962
		},
		{
			"buffer":0,
			"byteLength":5628,
			"byteOffset":1184816,
			"target":34963
		},
		{
			"buffer":0,
			"byteLength":768,
			"byteOffset":1190444,
			"target":34962
		},
		{
			"buffer":0,
			"byteLength":768,
			"byteOffset":1191212,
			"target":34962
		},
		{
			"buffer":0,
			"byteLength":512,
			"byteOffset":1191980,
			"target":34962
		},
		{
			"buffer":0,
			"byteLength":384,
			"byteOffset":1192492,
			"target":34963
		},
		{
			"buffer":0,
			"byteLength":768,
			"byteOffset":1192876,
			"target":34962
		},
		{
			"buffer":0,
			"byteLength":768,
			"byteOffset":1193644,
			"target":34962
		},
		{
			"buffer":0,
			"byteLength":512,
			"byteOffset":1194412,
			"target":34962
		},
		{
			"buffer":0,
			"byteLength":384,
			"byteOffset":1194924,
			"target":34963
		},
		{
			"buffer":0,
			"byteLength":3260148,
			"byteOffset":1195308,
			"target":34962
		},
		{
			"buffer":0,
			"byteLength":3260148,
			"byteOffset":4455456,
			"target":34962
		},
		{
			"buffer":0,
			"byteLength":6490368,
			"byteOffset":7715604,
			"target":34963
		}
	],
	"samplers":[
		{
			"magFilter":9729,
			"minFilter":9987
		}
	],
	"buffers":[
		{
			"byteLength":14205972,
			"uri":"Gaygysyz.bin"
		}
	]
}
